<svg id="visual" viewBox="0 0 960 255" width="960" height="255" xmlns="http://www.w3.org/2000/svg" xmlns:xlink="http://www.w3.org/1999/xlink" version="1.1"><g stroke-width="1" stroke-linejoin="bevel"><path d="M439.4 123.8L432.4 151.5L489.6 170.3Z" fill="#a6404d" stroke="#a6404d"></path><path d="M489.6 170.3L506 162.3L439.4 123.8Z" fill="#fa7268" stroke="#fa7268"></path><path d="M432.4 151.5L433.4 198.3L489.6 170.3Z" fill="#e56562" stroke="#e56562"></path><path d="M489.6 170.3L505.6 255L506 162.3Z" fill="#7c2a3c" stroke="#7c2a3c"></path><path d="M506 162.3L527.6 133.5L439.4 123.8Z" fill="#a6404d" stroke="#a6404d"></path><path d="M530.6 69.8L429 90.5L439.4 123.8Z" fill="#e56562" stroke="#e56562"></path><path d="M439.4 123.8L361.9 175.3L432.4 151.5Z" fill="#913545" stroke="#913545"></path><path d="M432.4 151.5L372.9 182.5L433.4 198.3Z" fill="#bb4c54" stroke="#bb4c54"></path><path d="M527.6 133.5L530.6 69.8L439.4 123.8Z" fill="#e56562" stroke="#e56562"></path><path d="M361.9 175.3L372.9 182.5L432.4 151.5Z" fill="#a6404d" stroke="#a6404d"></path><path d="M429 90.5L361.9 175.3L439.4 123.8Z" fill="#682034" stroke="#682034"></path><path d="M433.4 255L439 255L433.4 198.3Z" fill="#300517" stroke="#300517"></path><path d="M433.4 198.3L505.6 255L489.6 170.3Z" fill="#e56562" stroke="#e56562"></path><path d="M506 162.3L599.1 136.3L527.6 133.5Z" fill="#d0585b" stroke="#d0585b"></path><path d="M433.4 255L433.4 198.3L372.9 182.5Z" fill="#300517" stroke="#300517"></path><path d="M328.9 255L433.4 255L372.9 182.5Z" fill="#a6404d" stroke="#a6404d"></path><path d="M439 255L505.6 255L433.4 198.3Z" fill="#fa7268" stroke="#fa7268"></path><path d="M530.6 69.8L426 30.8L429 90.5Z" fill="#bb4c54" stroke="#bb4c54"></path><path d="M429 90.5L336.9 75.8L361.9 175.3Z" fill="#d0585b" stroke="#d0585b"></path><path d="M583.1 255L599.1 136.3L506 162.3Z" fill="#a6404d" stroke="#a6404d"></path><path d="M527.6 133.5L599.1 136.3L530.6 69.8Z" fill="#913545" stroke="#913545"></path><path d="M514 0L461.4 0L530.6 69.8Z" fill="#913545" stroke="#913545"></path><path d="M530.6 69.8L461.4 0L426 30.8Z" fill="#300517" stroke="#300517"></path><path d="M294.9 0L336.9 75.8L426 30.8Z" fill="#fa7268" stroke="#fa7268"></path><path d="M426 30.8L336.9 75.8L429 90.5Z" fill="#fa7268" stroke="#fa7268"></path><path d="M561.6 0L514 0L530.6 69.8Z" fill="#682034" stroke="#682034"></path><path d="M505.6 255L583.1 255L506 162.3Z" fill="#420d21" stroke="#420d21"></path><path d="M645.7 182.3L622.1 97.5L599.1 136.3Z" fill="#7c2a3c" stroke="#7c2a3c"></path><path d="M599.1 136.3L620.1 90.8L530.6 69.8Z" fill="#55162a" stroke="#55162a"></path><path d="M622.1 97.5L620.1 90.8L599.1 136.3Z" fill="#7c2a3c" stroke="#7c2a3c"></path><path d="M576.1 0L561.6 0L530.6 69.8Z" fill="#bb4c54" stroke="#bb4c54"></path><path d="M288.3 255L328.9 255L361.9 175.3Z" fill="#55162a" stroke="#55162a"></path><path d="M361.9 175.3L328.9 255L372.9 182.5Z" fill="#e56562" stroke="#e56562"></path><path d="M620.1 90.8L576.1 0L530.6 69.8Z" fill="#55162a" stroke="#55162a"></path><path d="M583.1 255L645.7 182.3L599.1 136.3Z" fill="#682034" stroke="#682034"></path><path d="M230.7 172.3L288.3 255L361.9 175.3Z" fill="#e56562" stroke="#e56562"></path><path d="M583.1 255L646.7 255L645.7 182.3Z" fill="#a6404d" stroke="#a6404d"></path><path d="M336.9 75.8L254.3 126.5L361.9 175.3Z" fill="#300517" stroke="#300517"></path><path d="M461.4 0L294.9 0L426 30.8Z" fill="#d0585b" stroke="#d0585b"></path><path d="M336.9 75.8L260.7 38.8L254.3 126.5Z" fill="#d0585b" stroke="#d0585b"></path><path d="M294.9 0L260.7 38.8L336.9 75.8Z" fill="#300517" stroke="#300517"></path><path d="M287.3 0L260.7 38.8L294.9 0Z" fill="#913545" stroke="#913545"></path><path d="M700.3 224.3L699.7 181.5L645.7 182.3Z" fill="#a6404d" stroke="#a6404d"></path><path d="M645.7 182.3L722.7 118.8L622.1 97.5Z" fill="#fa7268" stroke="#fa7268"></path><path d="M696.3 3.8L669.7 0L733.3 77.5Z" fill="#fa7268" stroke="#fa7268"></path><path d="M620.1 90.8L669.7 0L576.1 0Z" fill="#d0585b" stroke="#d0585b"></path><path d="M254.3 126.5L230.7 172.3L361.9 175.3Z" fill="#fa7268" stroke="#fa7268"></path><path d="M229.7 75.5L230.7 172.3L254.3 126.5Z" fill="#682034" stroke="#682034"></path><path d="M214.3 30.8L229.7 75.5L260.7 38.8Z" fill="#d0585b" stroke="#d0585b"></path><path d="M260.7 38.8L229.7 75.5L254.3 126.5Z" fill="#e56562" stroke="#e56562"></path><path d="M646.7 255L700.3 224.3L645.7 182.3Z" fill="#a6404d" stroke="#a6404d"></path><path d="M733.3 77.5L620.1 90.8L622.1 97.5Z" fill="#682034" stroke="#682034"></path><path d="M646.7 255L696.3 255L700.3 224.3Z" fill="#300517" stroke="#300517"></path><path d="M127.6 103.5L214.3 192.3L230.7 172.3Z" fill="#300517" stroke="#300517"></path><path d="M230.7 172.3L214.3 192.3L288.3 255Z" fill="#fa7268" stroke="#fa7268"></path><path d="M798.9 148.5L722.7 118.8L699.7 181.5Z" fill="#682034" stroke="#682034"></path><path d="M699.7 181.5L722.7 118.8L645.7 182.3Z" fill="#55162a" stroke="#55162a"></path><path d="M798.9 148.5L699.7 181.5L700.3 224.3Z" fill="#a6404d" stroke="#a6404d"></path><path d="M733.3 77.5L669.7 0L620.1 90.8Z" fill="#a6404d" stroke="#a6404d"></path><path d="M798.9 148.5L733.3 77.5L722.7 118.8Z" fill="#420d21" stroke="#420d21"></path><path d="M722.7 118.8L733.3 77.5L622.1 97.5Z" fill="#55162a" stroke="#55162a"></path><path d="M205.7 0L214.3 30.8L260.7 38.8Z" fill="#a6404d" stroke="#a6404d"></path><path d="M229.7 75.5L127.6 103.5L230.7 172.3Z" fill="#7c2a3c" stroke="#7c2a3c"></path><path d="M733.3 77.5L710.3 0L696.3 3.8Z" fill="#bb4c54" stroke="#bb4c54"></path><path d="M696.3 3.8L710.3 0L669.7 0Z" fill="#bb4c54" stroke="#bb4c54"></path><path d="M180.7 255L196.1 240.3L120.1 255Z" fill="#420d21" stroke="#420d21"></path><path d="M214.3 192.3L196.1 240.3L288.3 255Z" fill="#bb4c54" stroke="#bb4c54"></path><path d="M287.3 0L205.7 0L260.7 38.8Z" fill="#300517" stroke="#300517"></path><path d="M120.1 255L196.1 240.3L96.6 186.3Z" fill="#55162a" stroke="#55162a"></path><path d="M134.1 67.5L229.7 75.5L214.3 30.8Z" fill="#e56562" stroke="#e56562"></path><path d="M196.1 240.3L180.7 255L288.3 255Z" fill="#e56562" stroke="#e56562"></path><path d="M867.9 197.3L798.9 148.5L700.3 224.3Z" fill="#7c2a3c" stroke="#7c2a3c"></path><path d="M733.3 77.5L790.9 0L710.3 0Z" fill="#d0585b" stroke="#d0585b"></path><path d="M205.7 0L134.1 67.5L214.3 30.8Z" fill="#420d21" stroke="#420d21"></path><path d="M134.1 67.5L127.6 103.5L229.7 75.5Z" fill="#682034" stroke="#682034"></path><path d="M817.9 5.8L790.9 0L733.3 77.5Z" fill="#55162a" stroke="#55162a"></path><path d="M96.6 186.3L196.1 240.3L214.3 192.3Z" fill="#420d21" stroke="#420d21"></path><path d="M127.6 103.5L96.6 186.3L214.3 192.3Z" fill="#7c2a3c" stroke="#7c2a3c"></path><path d="M0 165.5L96.6 186.3L127.6 103.5Z" fill="#d0585b" stroke="#d0585b"></path><path d="M798.9 148.5L817.9 5.8L733.3 77.5Z" fill="#fa7268" stroke="#fa7268"></path><path d="M205.7 0L107.6 0L134.1 67.5Z" fill="#913545" stroke="#913545"></path><path d="M134.1 67.5L61.6 35.8L127.6 103.5Z" fill="#55162a" stroke="#55162a"></path><path d="M107.6 0L93.1 5.8L134.1 67.5Z" fill="#bb4c54" stroke="#bb4c54"></path><path d="M875.9 255L867.9 197.3L700.3 224.3Z" fill="#420d21" stroke="#420d21"></path><path d="M798.9 148.5L876.4 126.5L817.9 5.8Z" fill="#420d21" stroke="#420d21"></path><path d="M867.9 197.3L876.4 126.5L798.9 148.5Z" fill="#300517" stroke="#300517"></path><path d="M107.6 0L78.1 0L93.1 5.8Z" fill="#a6404d" stroke="#a6404d"></path><path d="M93.1 5.8L61.6 35.8L134.1 67.5Z" fill="#bb4c54" stroke="#bb4c54"></path><path d="M78.1 0L61.6 35.8L93.1 5.8Z" fill="#300517" stroke="#300517"></path><path d="M696.3 255L875.9 255L700.3 224.3Z" fill="#682034" stroke="#682034"></path><path d="M960 210.3L960 103.5L876.4 126.5Z" fill="#420d21" stroke="#420d21"></path><path d="M0 190.3L53.6 255L96.6 186.3Z" fill="#420d21" stroke="#420d21"></path><path d="M96.6 186.3L53.6 255L120.1 255Z" fill="#682034" stroke="#682034"></path><path d="M875.9 255L890.4 255L867.9 197.3Z" fill="#fa7268" stroke="#fa7268"></path><path d="M876.4 126.5L897.4 7.8L817.9 5.8Z" fill="#913545" stroke="#913545"></path><path d="M817.9 5.8L933.4 0L790.9 0Z" fill="#e56562" stroke="#e56562"></path><path d="M933.4 0L897.4 7.8L960 15.8Z" fill="#55162a" stroke="#55162a"></path><path d="M890.4 255L912.4 247.3L867.9 197.3Z" fill="#300517" stroke="#300517"></path><path d="M61.6 35.8L0 165.5L127.6 103.5Z" fill="#bb4c54" stroke="#bb4c54"></path><path d="M0 14.8L0 165.5L61.6 35.8Z" fill="#bb4c54" stroke="#bb4c54"></path><path d="M0 165.5L0 190.3L96.6 186.3Z" fill="#55162a" stroke="#55162a"></path><path d="M0 190.3L0 255L53.6 255Z" fill="#55162a" stroke="#55162a"></path><path d="M0 0L0 14.8L61.6 35.8Z" fill="#e56562" stroke="#e56562"></path><path d="M78.1 0L0 0L61.6 35.8Z" fill="#bb4c54" stroke="#bb4c54"></path><path d="M960 103.5L897.4 7.8L876.4 126.5Z" fill="#300517" stroke="#300517"></path><path d="M897.4 7.8L933.4 0L817.9 5.8Z" fill="#55162a" stroke="#55162a"></path><path d="M960 210.3L876.4 126.5L867.9 197.3Z" fill="#300517" stroke="#300517"></path><path d="M912.4 247.3L960 210.3L867.9 197.3Z" fill="#a6404d" stroke="#a6404d"></path><path d="M890.4 255L960 255L912.4 247.3Z" fill="#682034" stroke="#682034"></path><path d="M912.4 247.3L960 255L960 210.3Z" fill="#fa7268" stroke="#fa7268"></path><path d="M960 103.5L960 15.8L897.4 7.8Z" fill="#fa7268" stroke="#fa7268"></path><path d="M960 15.8L960 0L933.4 0Z" fill="#a6404d" stroke="#a6404d"></path></g></svg>