<svg id="visual" viewBox="0 0 960 300" width="960" height="300" xmlns="http://www.w3.org/2000/svg" xmlns:xlink="http://www.w3.org/1999/xlink" version="1.1"><path d="M0 19L12.3 18C24.7 17 49.3 15 74 14.5C98.7 14 123.3 15 148 18C172.7 21 197.3 26 221.8 29C246.3 32 270.7 33 295.2 30.5C319.7 28 344.3 22 369 19.5C393.7 17 418.3 18 443 18C467.7 18 492.3 17 517 15C541.7 13 566.3 10 591 10.5C615.7 11 640.3 15 664.8 20C689.3 25 713.7 31 738.2 33.5C762.7 36 787.3 35 812 31.5C836.7 28 861.3 22 886 19C910.7 16 935.3 16 947.7 16L960 16L960 0L947.7 0C935.3 0 910.7 0 886 0C861.3 0 836.7 0 812 0C787.3 0 762.7 0 738.2 0C713.7 0 689.3 0 664.8 0C640.3 0 615.7 0 591 0C566.3 0 541.7 0 517 0C492.3 0 467.7 0 443 0C418.3 0 393.7 0 369 0C344.3 0 319.7 0 295.2 0C270.7 0 246.3 0 221.8 0C197.3 0 172.7 0 148 0C123.3 0 98.7 0 74 0C49.3 0 24.7 0 12.3 0L0 0Z" fill="#c62368"></path><path d="M0 43L12.3 46.5C24.7 50 49.3 57 74 61.5C98.7 66 123.3 68 148 66.5C172.7 65 197.3 60 221.8 60.5C246.3 61 270.7 67 295.2 76.5C319.7 86 344.3 99 369 101C393.7 103 418.3 94 443 90.5C467.7 87 492.3 89 517 94C541.7 99 566.3 107 591 105C615.7 103 640.3 91 664.8 94C689.3 97 713.7 115 738.2 116C762.7 117 787.3 101 812 92C836.7 83 861.3 81 886 75C910.7 69 935.3 59 947.7 54L960 49L960 14L947.7 14C935.3 14 910.7 14 886 17C861.3 20 836.7 26 812 29.5C787.3 33 762.7 34 738.2 31.5C713.7 29 689.3 23 664.8 18C640.3 13 615.7 9 591 8.5C566.3 8 541.7 11 517 13C492.3 15 467.7 16 443 16C418.3 16 393.7 15 369 17.5C344.3 20 319.7 26 295.2 28.5C270.7 31 246.3 30 221.8 27C197.3 24 172.7 19 148 16C123.3 13 98.7 12 74 12.5C49.3 13 24.7 15 12.3 16L0 17Z" fill="#d43767"></path><path d="M0 58L12.3 60.5C24.7 63 49.3 68 74 73C98.7 78 123.3 83 148 83C172.7 83 197.3 78 221.8 77C246.3 76 270.7 79 295.2 88C319.7 97 344.3 112 369 114C393.7 116 418.3 105 443 101C467.7 97 492.3 100 517 106C541.7 112 566.3 121 591 120C615.7 119 640.3 108 664.8 109C689.3 110 713.7 123 738.2 123.5C762.7 124 787.3 112 812 103C836.7 94 861.3 88 886 82C910.7 76 935.3 70 947.7 67L960 64L960 47L947.7 52C935.3 57 910.7 67 886 73C861.3 79 836.7 81 812 90C787.3 99 762.7 115 738.2 114C713.7 113 689.3 95 664.8 92C640.3 89 615.7 101 591 103C566.3 105 541.7 97 517 92C492.3 87 467.7 85 443 88.5C418.3 92 393.7 101 369 99C344.3 97 319.7 84 295.2 74.5C270.7 65 246.3 59 221.8 58.5C197.3 58 172.7 63 148 64.5C123.3 66 98.7 64 74 59.5C49.3 55 24.7 48 12.3 44.5L0 41Z" fill="#e14867"></path><path d="M0 82L12.3 85.5C24.7 89 49.3 96 74 99C98.7 102 123.3 101 148 98.5C172.7 96 197.3 92 221.8 92C246.3 92 270.7 96 295.2 105.5C319.7 115 344.3 130 369 133.5C393.7 137 418.3 129 443 126C467.7 123 492.3 125 517 128.5C541.7 132 566.3 137 591 134.5C615.7 132 640.3 122 664.8 125C689.3 128 713.7 144 738.2 143.5C762.7 143 787.3 126 812 117.5C836.7 109 861.3 109 886 106.5C910.7 104 935.3 99 947.7 96.5L960 94L960 62L947.7 65C935.3 68 910.7 74 886 80C861.3 86 836.7 92 812 101C787.3 110 762.7 122 738.2 121.5C713.7 121 689.3 108 664.8 107C640.3 106 615.7 117 591 118C566.3 119 541.7 110 517 104C492.3 98 467.7 95 443 99C418.3 103 393.7 114 369 112C344.3 110 319.7 95 295.2 86C270.7 77 246.3 74 221.8 75C197.3 76 172.7 81 148 81C123.3 81 98.7 76 74 71C49.3 66 24.7 61 12.3 58.5L0 56Z" fill="#ec5a67"></path><path d="M0 91L12.3 94.5C24.7 98 49.3 105 74 107C98.7 109 123.3 106 148 105C172.7 104 197.3 105 221.8 106.5C246.3 108 270.7 110 295.2 119C319.7 128 344.3 144 369 148.5C393.7 153 418.3 146 443 141.5C467.7 137 492.3 135 517 137.5C541.7 140 566.3 147 591 146C615.7 145 640.3 136 664.8 138C689.3 140 713.7 153 738.2 150.5C762.7 148 787.3 130 812 124C836.7 118 861.3 124 886 121.5C910.7 119 935.3 108 947.7 102.5L960 97L960 92L947.7 94.5C935.3 97 910.7 102 886 104.5C861.3 107 836.7 107 812 115.5C787.3 124 762.7 141 738.2 141.5C713.7 142 689.3 126 664.8 123C640.3 120 615.7 130 591 132.5C566.3 135 541.7 130 517 126.5C492.3 123 467.7 121 443 124C418.3 127 393.7 135 369 131.5C344.3 128 319.7 113 295.2 103.5C270.7 94 246.3 90 221.8 90C197.3 90 172.7 94 148 96.5C123.3 99 98.7 100 74 97C49.3 94 24.7 87 12.3 83.5L0 80Z" fill="#f66b68"></path><path d="M0 115L12.3 117.5C24.7 120 49.3 125 74 124.5C98.7 124 123.3 118 148 115.5C172.7 113 197.3 114 221.8 115C246.3 116 270.7 117 295.2 128C319.7 139 344.3 160 369 164.5C393.7 169 418.3 157 443 152C467.7 147 492.3 149 517 153.5C541.7 158 566.3 165 591 164.5C615.7 164 640.3 156 664.8 156C689.3 156 713.7 164 738.2 162C762.7 160 787.3 148 812 142C836.7 136 861.3 136 886 132.5C910.7 129 935.3 122 947.7 118.5L960 115L960 95L947.7 100.5C935.3 106 910.7 117 886 119.5C861.3 122 836.7 116 812 122C787.3 128 762.7 146 738.2 148.5C713.7 151 689.3 138 664.8 136C640.3 134 615.7 143 591 144C566.3 145 541.7 138 517 135.5C492.3 133 467.7 135 443 139.5C418.3 144 393.7 151 369 146.5C344.3 142 319.7 126 295.2 117C270.7 108 246.3 106 221.8 104.5C197.3 103 172.7 102 148 103C123.3 104 98.7 107 74 105C49.3 103 24.7 96 12.3 92.5L0 89Z" fill="#fa7268"></path><path d="M0 139L12.3 141.5C24.7 144 49.3 149 74 145.5C98.7 142 123.3 130 148 127C172.7 124 197.3 130 221.8 132.5C246.3 135 270.7 134 295.2 144.5C319.7 155 344.3 177 369 180.5C393.7 184 418.3 169 443 165C467.7 161 492.3 168 517 173C541.7 178 566.3 181 591 180C615.7 179 640.3 174 664.8 172.5C689.3 171 713.7 173 738.2 170C762.7 167 787.3 159 812 154.5C836.7 150 861.3 149 886 144C910.7 139 935.3 130 947.7 125.5L960 121L960 113L947.7 116.5C935.3 120 910.7 127 886 130.5C861.3 134 836.7 134 812 140C787.3 146 762.7 158 738.2 160C713.7 162 689.3 154 664.8 154C640.3 154 615.7 162 591 162.5C566.3 163 541.7 156 517 151.5C492.3 147 467.7 145 443 150C418.3 155 393.7 167 369 162.5C344.3 158 319.7 137 295.2 126C270.7 115 246.3 114 221.8 113C197.3 112 172.7 111 148 113.5C123.3 116 98.7 122 74 122.5C49.3 123 24.7 118 12.3 115.5L0 113Z" fill="#fa7268"></path><path d="M0 196L12.3 198C24.7 200 49.3 204 74 205.5C98.7 207 123.3 206 148 207C172.7 208 197.3 211 221.8 209C246.3 207 270.7 200 295.2 201C319.7 202 344.3 211 369 212C393.7 213 418.3 206 443 209C467.7 212 492.3 225 517 225.5C541.7 226 566.3 214 591 207C615.7 200 640.3 198 664.8 201C689.3 204 713.7 212 738.2 213.5C762.7 215 787.3 210 812 205.5C836.7 201 861.3 197 886 195C910.7 193 935.3 193 947.7 193L960 193L960 119L947.7 123.5C935.3 128 910.7 137 886 142C861.3 147 836.7 148 812 152.5C787.3 157 762.7 165 738.2 168C713.7 171 689.3 169 664.8 170.5C640.3 172 615.7 177 591 178C566.3 179 541.7 176 517 171C492.3 166 467.7 159 443 163C418.3 167 393.7 182 369 178.5C344.3 175 319.7 153 295.2 142.5C270.7 132 246.3 133 221.8 130.5C197.3 128 172.7 122 148 125C123.3 128 98.7 140 74 143.5C49.3 147 24.7 142 12.3 139.5L0 137Z" fill="#f66b68"></path><path d="M0 247L12.3 251C24.7 255 49.3 263 74 259C98.7 255 123.3 239 148 234C172.7 229 197.3 235 221.8 241C246.3 247 270.7 253 295.2 257C319.7 261 344.3 263 369 259.5C393.7 256 418.3 247 443 244C467.7 241 492.3 244 517 246.5C541.7 249 566.3 251 591 247.5C615.7 244 640.3 235 664.8 231.5C689.3 228 713.7 230 738.2 231C762.7 232 787.3 232 812 232.5C836.7 233 861.3 234 886 235C910.7 236 935.3 237 947.7 237.5L960 238L960 191L947.7 191C935.3 191 910.7 191 886 193C861.3 195 836.7 199 812 203.5C787.3 208 762.7 213 738.2 211.5C713.7 210 689.3 202 664.8 199C640.3 196 615.7 198 591 205C566.3 212 541.7 224 517 223.5C492.3 223 467.7 210 443 207C418.3 204 393.7 211 369 210C344.3 209 319.7 200 295.2 199C270.7 198 246.3 205 221.8 207C197.3 209 172.7 206 148 205C123.3 204 98.7 205 74 203.5C49.3 202 24.7 198 12.3 196L0 194Z" fill="#ec5a67"></path><path d="M0 250L12.3 254.5C24.7 259 49.3 268 74 264.5C98.7 261 123.3 245 148 242C172.7 239 197.3 249 221.8 257.5C246.3 266 270.7 273 295.2 276C319.7 279 344.3 278 369 273C393.7 268 418.3 259 443 255C467.7 251 492.3 252 517 253C541.7 254 566.3 255 591 252C615.7 249 640.3 242 664.8 240C689.3 238 713.7 241 738.2 243C762.7 245 787.3 246 812 245C836.7 244 861.3 241 886 241C910.7 241 935.3 244 947.7 245.5L960 247L960 236L947.7 235.5C935.3 235 910.7 234 886 233C861.3 232 836.7 231 812 230.5C787.3 230 762.7 230 738.2 229C713.7 228 689.3 226 664.8 229.5C640.3 233 615.7 242 591 245.5C566.3 249 541.7 247 517 244.5C492.3 242 467.7 239 443 242C418.3 245 393.7 254 369 257.5C344.3 261 319.7 259 295.2 255C270.7 251 246.3 245 221.8 239C197.3 233 172.7 227 148 232C123.3 237 98.7 253 74 257C49.3 261 24.7 253 12.3 249L0 245Z" fill="#e14867"></path><path d="M0 265L12.3 269C24.7 273 49.3 281 74 278.5C98.7 276 123.3 263 148 261C172.7 259 197.3 268 221.8 274C246.3 280 270.7 283 295.2 285C319.7 287 344.3 288 369 288.5C393.7 289 418.3 289 443 284.5C467.7 280 492.3 271 517 267C541.7 263 566.3 264 591 265C615.7 266 640.3 267 664.8 267C689.3 267 713.7 266 738.2 265.5C762.7 265 787.3 265 812 265.5C836.7 266 861.3 267 886 265.5C910.7 264 935.3 260 947.7 258L960 256L960 245L947.7 243.5C935.3 242 910.7 239 886 239C861.3 239 836.7 242 812 243C787.3 244 762.7 243 738.2 241C713.7 239 689.3 236 664.8 238C640.3 240 615.7 247 591 250C566.3 253 541.7 252 517 251C492.3 250 467.7 249 443 253C418.3 257 393.7 266 369 271C344.3 276 319.7 277 295.2 274C270.7 271 246.3 264 221.8 255.5C197.3 247 172.7 237 148 240C123.3 243 98.7 259 74 262.5C49.3 266 24.7 257 12.3 252.5L0 248Z" fill="#d43767"></path><path d="M0 301L12.3 301C24.7 301 49.3 301 74 301C98.7 301 123.3 301 148 301C172.7 301 197.3 301 221.8 301C246.3 301 270.7 301 295.2 301C319.7 301 344.3 301 369 301C393.7 301 418.3 301 443 301C467.7 301 492.3 301 517 301C541.7 301 566.3 301 591 301C615.7 301 640.3 301 664.8 301C689.3 301 713.7 301 738.2 301C762.7 301 787.3 301 812 301C836.7 301 861.3 301 886 301C910.7 301 935.3 301 947.7 301L960 301L960 254L947.7 256C935.3 258 910.7 262 886 263.5C861.3 265 836.7 264 812 263.5C787.3 263 762.7 263 738.2 263.5C713.7 264 689.3 265 664.8 265C640.3 265 615.7 264 591 263C566.3 262 541.7 261 517 265C492.3 269 467.7 278 443 282.5C418.3 287 393.7 287 369 286.5C344.3 286 319.7 285 295.2 283C270.7 281 246.3 278 221.8 272C197.3 266 172.7 257 148 259C123.3 261 98.7 274 74 276.5C49.3 279 24.7 271 12.3 267L0 263Z" fill="#c62368"></path></svg>