<svg id="visual" viewBox="0 0 960 75" width="960" height="75" xmlns="http://www.w3.org/2000/svg" xmlns:xlink="http://www.w3.org/1999/xlink" version="1.1"><g stroke-width="1" stroke-linejoin="bevel"><path d="M445.4 54.5L447 0L420.4 0Z" fill="#55162a" stroke="#55162a"></path><path d="M420.4 0L397.9 0L445.4 54.5Z" fill="#913545" stroke="#913545"></path><path d="M397.9 0L368.4 75L445.4 54.5Z" fill="#55162a" stroke="#55162a"></path><path d="M397.9 0L344.9 58.5L368.4 75Z" fill="#420d21" stroke="#420d21"></path><path d="M445.4 54.5L517 -18.5L447 0Z" fill="#300517" stroke="#300517"></path><path d="M447 0L517 -18.5L420.4 0Z" fill="#300517" stroke="#300517"></path><path d="M420.4 0L517 -18.5L397.9 0Z" fill="#913545" stroke="#913545"></path><path d="M368.4 75L537 75L445.4 54.5Z" fill="#420d21" stroke="#420d21"></path><path d="M445.4 54.5L537 75L517 -18.5Z" fill="#300517" stroke="#300517"></path><path d="M344.9 58.5L321.9 75L368.4 75Z" fill="#300517" stroke="#300517"></path><path d="M295.3 0L321.9 75L344.9 58.5Z" fill="#d0585b" stroke="#d0585b"></path><path d="M537 75L558.6 18.5L517 -18.5Z" fill="#bb4c54" stroke="#bb4c54"></path><path d="M558.6 18.5L565.6 0L517 -18.5Z" fill="#913545" stroke="#913545"></path><path d="M537 75L559.6 75L558.6 18.5Z" fill="#e56562" stroke="#e56562"></path><path d="M558.6 18.5L583.1 6.5L565.6 0Z" fill="#420d21" stroke="#420d21"></path><path d="M517 -18.5L295.3 0L397.9 0Z" fill="#a6404d" stroke="#a6404d"></path><path d="M397.9 0L295.3 0L344.9 58.5Z" fill="#a6404d" stroke="#a6404d"></path><path d="M295.3 0L290.3 70.5L321.9 75Z" fill="#d0585b" stroke="#d0585b"></path><path d="M607.1 75L583.1 6.5L558.6 18.5Z" fill="#913545" stroke="#913545"></path><path d="M565.6 0L618.1 0L517 -18.5Z" fill="#d0585b" stroke="#d0585b"></path><path d="M559.6 75L607.1 75L558.6 18.5Z" fill="#a6404d" stroke="#a6404d"></path><path d="M253.7 0L260.3 75L290.3 70.5Z" fill="#300517" stroke="#300517"></path><path d="M290.3 70.5L260.3 75L321.9 75Z" fill="#7c2a3c" stroke="#7c2a3c"></path><path d="M517 -18.5L253.7 0L295.3 0Z" fill="#fa7268" stroke="#fa7268"></path><path d="M295.3 0L253.7 0L290.3 70.5Z" fill="#300517" stroke="#300517"></path><path d="M607.1 75L618.1 0L583.1 6.5Z" fill="#d0585b" stroke="#d0585b"></path><path d="M583.1 6.5L618.1 0L565.6 0Z" fill="#a6404d" stroke="#a6404d"></path><path d="M607.1 75L685.7 62.5L618.1 0Z" fill="#a6404d" stroke="#a6404d"></path><path d="M253.7 0L183.7 75L260.3 75Z" fill="#420d21" stroke="#420d21"></path><path d="M685.7 62.5L694.3 0L618.1 0Z" fill="#55162a" stroke="#55162a"></path><path d="M618.1 0L694.3 0L517 -18.5Z" fill="#300517" stroke="#300517"></path><path d="M253.7 0L164.7 10.5L183.7 75Z" fill="#300517" stroke="#300517"></path><path d="M685.7 62.5L717.7 0L694.3 0Z" fill="#fa7268" stroke="#fa7268"></path><path d="M694.3 0L717.7 0L517 -18.5Z" fill="#a6404d" stroke="#a6404d"></path><path d="M517 -18.5L147.1 0L253.7 0Z" fill="#a6404d" stroke="#a6404d"></path><path d="M253.7 0L147.1 0L164.7 10.5Z" fill="#682034" stroke="#682034"></path><path d="M164.7 10.5L114.1 75L183.7 75Z" fill="#7c2a3c" stroke="#7c2a3c"></path><path d="M53.6 -2.5L124.1 0.5L147.1 0Z" fill="#913545" stroke="#913545"></path><path d="M147.1 0L124.1 0.5L164.7 10.5Z" fill="#e56562" stroke="#e56562"></path><path d="M607.1 75L742.7 75L685.7 62.5Z" fill="#913545" stroke="#913545"></path><path d="M685.7 62.5L742.7 75L717.7 0Z" fill="#d0585b" stroke="#d0585b"></path><path d="M124.1 0.5L114.1 75L164.7 10.5Z" fill="#d0585b" stroke="#d0585b"></path><path d="M124.1 0.5L99.6 75L114.1 75Z" fill="#e56562" stroke="#e56562"></path><path d="M742.7 75L796.3 10.5L717.7 0Z" fill="#bb4c54" stroke="#bb4c54"></path><path d="M770.9 75L796.3 10.5L742.7 75Z" fill="#bb4c54" stroke="#bb4c54"></path><path d="M791.3 75L796.3 10.5L770.9 75Z" fill="#913545" stroke="#913545"></path><path d="M847.4 0L809.9 0L849.9 17.5Z" fill="#a6404d" stroke="#a6404d"></path><path d="M796.3 10.5L809.9 0L717.7 0Z" fill="#bb4c54" stroke="#bb4c54"></path><path d="M717.7 0L809.9 0L517 -18.5Z" fill="#300517" stroke="#300517"></path><path d="M517 -18.5L53.6 -2.5L147.1 0Z" fill="#420d21" stroke="#420d21"></path><path d="M124.1 0.5L53.6 -2.5L99.6 75Z" fill="#913545" stroke="#913545"></path><path d="M849.9 17.5L809.9 0L796.3 10.5Z" fill="#55162a" stroke="#55162a"></path><path d="M809.9 0L847.4 0L517 -18.5Z" fill="#300517" stroke="#300517"></path><path d="M851.4 20.5L849.9 17.5L796.3 10.5Z" fill="#420d21" stroke="#420d21"></path><path d="M791.3 75L851.4 20.5L796.3 10.5Z" fill="#fa7268" stroke="#fa7268"></path><path d="M849.9 17.5L851.4 20.5L847.4 0Z" fill="#fa7268" stroke="#fa7268"></path><path d="M53.6 -2.5L0 67.5L99.6 75Z" fill="#300517" stroke="#300517"></path><path d="M53.6 -2.5L0 0L14.6 0Z" fill="#300517" stroke="#300517"></path><path d="M14.6 0L0 67.5L53.6 -2.5Z" fill="#d0585b" stroke="#d0585b"></path><path d="M0 0L0 67.5L14.6 0Z" fill="#682034" stroke="#682034"></path><path d="M0 67.5L0 75L99.6 75Z" fill="#420d21" stroke="#420d21"></path><path d="M791.3 75L911.4 75L851.4 20.5Z" fill="#300517" stroke="#300517"></path><path d="M851.4 20.5L960 0L847.4 0Z" fill="#fa7268" stroke="#fa7268"></path><path d="M911.4 75L960 17.5L851.4 20.5Z" fill="#420d21" stroke="#420d21"></path><path d="M960 17.5L960 0L851.4 20.5Z" fill="#682034" stroke="#682034"></path><path d="M847.4 0L960 0L517 -18.5Z" fill="#420d21" stroke="#420d21"></path><path d="M911.4 75L960 75L960 17.5Z" fill="#bb4c54" stroke="#bb4c54"></path></g></svg>